<svg xmlns="http://www.w3.org/2000/svg" viewBox="0 0 64 64" width="64" height="64" fill="none">
  <defs>
    <linearGradient id="psGrad" x1="0%" y1="0%" x2="0%" y2="100%">
      <stop offset="0%" stop-color="#ffffff" stop-opacity="0.95"/>
      <stop offset="100%" stop-color="#d4e4f7" stop-opacity="0.8"/>
    </linearGradient>
    <filter id="ds3Shadow" x="-20%" y="-20%" width="140%" height="140%">
      <feDropShadow dx="0" dy="2" stdDeviation="2" flood-color="#000000" flood-opacity="0.5"/>
    </filter>
  </defs>
  <g filter="url(#ds3Shadow)">
    <!-- DualShock 3 Body Silhouette -->
    <path d="M17 19 C22 19 25 21 32 21 C39 21 42 19 47 19 C52 19 56 22 57 28 C58 34 56 46 51 51 C48 54 44 51 42 45 C40 39 37 38 32 38 C27 38 24 39 22 45 C20 51 16 54 13 51 C8 46 6 34 7 28 C8 22 12 19 17 19 Z" 
          fill="url(#psGrad)"/>
    
    <!-- L1 / R1 Bumpers -->
    <path d="M15 15.5 C19 15.5 22 16.5 24 17.5 L23 19 C20 18 17 17.5 14 17.5 C12 17.5 11 18 10 18.5 L9.5 17 C11 16 13 15.5 15 15.5 Z" fill="#ffffff" fill-opacity="0.75"/>
    <path d="M49 15.5 C45 15.5 42 16.5 40 17.5 L41 19 C44 18 47 17.5 50 17.5 C52 17.5 53 18 54 18.5 L54.5 17 C53 16 51 15.5 49 15.5 Z" fill="#ffffff" fill-opacity="0.75"/>

    <!-- Cutout details: D-Pad, Buttons, Analog Sticks -->
    <!-- D-Pad (Left) -->
    <path d="M17 25 L19 25 L19 28 L22 28 L22 30 L19 30 L19 33 L17 33 L17 30 L14 30 L14 28 L17 28 Z" fill="#0c182b" fill-opacity="0.75"/>

    <!-- 4 Action Buttons (Right) - Triangle, Circle, Cross, Square -->
    <circle cx="46" cy="24.5" r="1.4" fill="#0c182b" fill-opacity="0.8"/>
    <circle cx="49.5" cy="29" r="1.4" fill="#0c182b" fill-opacity="0.8"/>
    <circle cx="46" cy="33.5" r="1.4" fill="#0c182b" fill-opacity="0.8"/>
    <circle cx="42.5" cy="29" r="1.4" fill="#0c182b" fill-opacity="0.8"/>

    <!-- Analog Sticks (Bottom Center, Symmetrical) -->
    <circle cx="25.5" cy="38.5" r="5" fill="#0c182b" fill-opacity="0.75"/>
    <circle cx="25.5" cy="38.5" r="3.2" fill="url(#psGrad)"/>

    <circle cx="38.5" cy="38.5" r="5" fill="#0c182b" fill-opacity="0.75"/>
    <circle cx="38.5" cy="38.5" r="3.2" fill="url(#psGrad)"/>

    <!-- Center: Select, PS Button, Start -->
    <rect x="27.5" y="28" width="2" height="1.2" rx="0.5" fill="#0c182b" fill-opacity="0.75"/>
    <circle cx="32" cy="30" r="2" fill="#0c182b" fill-opacity="0.8"/>
    <rect x="34.5" y="28" width="2" height="1.2" rx="0.5" fill="#0c182b" fill-opacity="0.75"/>
  </g>
</svg>
